<svg width="49" height="49" viewBox="0 0 49 49" fill="none" xmlns="http://www.w3.org/2000/svg">
<path fill-rule="evenodd" clip-rule="evenodd" d="M2.11655 6.94312C3.46575 5.59183 5.2965 4.83185 7.20603 4.83038L40.8056 4.80442C42.7152 4.80294 44.5471 5.56009 45.8984 6.90929C47.2497 8.2585 48.0096 10.0892 48.0111 11.9988L48.013 14.3615C48.0133 14.3849 48.0133 14.4082 48.013 14.4316L48.0297 35.9985C48.0311 37.9081 47.274 39.74 45.9248 41.0913C44.5756 42.4425 42.7449 43.2025 40.8353 43.204L7.2357 43.23C5.32616 43.2314 3.49425 42.4743 2.14296 41.1251C0.791668 39.7759 0.0316928 37.9451 0.0302176 36.0356L0.0135562 14.4686C0.0131983 14.4453 0.0131797 14.422 0.0135021 14.3986L0.0116768 12.0359C0.0102016 10.1263 0.767347 8.29441 2.11655 6.94312ZM4.81694 18.9165L4.83016 36.0319C4.83065 36.6684 5.08398 37.2786 5.53441 37.7284C5.98484 38.1781 6.59548 38.4305 7.23199 38.43L40.8316 38.4041C41.4681 38.4036 42.0784 38.1502 42.5281 37.6998C42.9778 37.2494 43.2302 36.6387 43.2297 36.0022L43.2165 18.8869L28.0205 29.0345C28.0203 29.0346 28.02 29.0348 28.0198 29.035C26.8374 29.825 25.4475 30.2471 24.0255 30.2482C22.6034 30.2493 21.2129 29.8293 20.0293 29.0411C20.0291 29.041 20.0288 29.0408 20.0286 29.0407L4.81694 18.9165ZM43.212 13.118L25.3542 25.0432L25.3534 25.0437C24.9593 25.3071 24.4959 25.4479 24.0218 25.4483C23.5477 25.4487 23.0841 25.3086 22.6895 25.0458L22.6888 25.0453L4.81248 13.1477L4.81162 12.0322C4.81113 11.3956 5.06351 10.785 5.51325 10.3346C5.96298 9.88414 6.57323 9.63081 7.20974 9.63032L40.8094 9.60437C41.4459 9.60387 42.0565 9.85626 42.5069 10.306C42.9574 10.7557 43.2107 11.366 43.2112 12.0025L43.212 13.118Z" fill="white"/>
</svg>
