<svg width="42" height="42" viewBox="0 0 42 42" fill="none" xmlns="http://www.w3.org/2000/svg">
<path d="M22.612 5.16434L32.76 9.67074C35.684 10.9607 35.684 13.0935 32.76 14.3835L22.612 18.8899C21.4596 19.4059 19.5676 19.4059 18.4152 18.8899L8.26722 14.3835C5.34322 13.0935 5.34322 10.9607 8.26722 9.67074L18.4152 5.16434C19.5676 4.64834 21.4596 4.64834 22.612 5.16434Z" stroke="#F04037" stroke-width="2.27863" stroke-linecap="round" stroke-linejoin="round"/>
<path d="M5.39453 19.0625C5.39453 20.5073 6.47813 22.1757 7.80253 22.7605L19.4813 27.9549C20.3757 28.3505 21.3905 28.3505 22.2677 27.9549L33.9465 22.7605C35.2709 22.1757 36.3545 20.5073 36.3545 19.0625" stroke="#F04037" stroke-width="2.27863" stroke-linecap="round" stroke-linejoin="round"/>
<path d="M5.39453 27.6621C5.39453 29.2617 6.34053 30.7065 7.80253 31.3601L19.4813 36.5545C20.3757 36.9501 21.3905 36.9501 22.2677 36.5545L33.9465 31.3601C35.4085 30.7065 36.3545 29.2617 36.3545 27.6621" stroke="#F04037" stroke-width="2.27863" stroke-linecap="round" stroke-linejoin="round"/>
</svg>
