<svg width="42" height="42" viewBox="0 0 42 42" fill="none" xmlns="http://www.w3.org/2000/svg">
<path d="M15.5069 22.5C14.3717 23.0676 13.4257 23.9104 12.7205 24.9596C12.3249 25.5616 12.3249 26.3184 12.7205 26.9204C13.4257 27.9696 14.3717 28.8124 15.5069 29.38" stroke="#00FF94" stroke-width="2.27863" stroke-linecap="round" stroke-linejoin="round"/>
<path d="M26.1875 22.5C27.3227 23.0676 28.2687 23.9104 28.9739 24.9596C29.3695 25.5616 29.3695 26.3184 28.9739 26.9204C28.2687 27.9696 27.3227 28.8124 26.1875 29.38" stroke="#00FF94" stroke-width="2.27863" stroke-linecap="round" stroke-linejoin="round"/>
<path d="M15.5068 37.9801H25.8268C34.4268 37.9801 37.8668 34.5401 37.8668 25.9401V15.6201C37.8668 7.02008 34.4268 3.58008 25.8268 3.58008H15.5068C6.9068 3.58008 3.4668 7.02008 3.4668 15.6201V25.9401C3.4668 34.5401 6.9068 37.9801 15.5068 37.9801Z" stroke="#00FF94" stroke-width="2.27863" stroke-linecap="round" stroke-linejoin="round"/>
<path d="M3.86328 13.9195L36.9217 13.9023" stroke="#00FF94" stroke-width="2.27863" stroke-linecap="round" stroke-linejoin="round"/>
</svg>
