<svg width="42" height="42" viewBox="0 0 42 42" fill="none" xmlns="http://www.w3.org/2000/svg">
<path d="M15.8663 22.502C14.7311 23.0696 13.7851 23.9124 13.0799 24.9616C12.6843 25.5636 12.6843 26.3204 13.0799 26.9224C13.7851 27.9716 14.7311 28.8144 15.8663 29.382" stroke="#48ABDD" stroke-width="2.27863" stroke-linecap="round" stroke-linejoin="round"/>
<path d="M26.5469 22.502C27.6821 23.0696 28.6281 23.9124 29.3333 24.9616C29.7289 25.5636 29.7289 26.3204 29.3333 26.9224C28.6281 27.9716 27.6821 28.8144 26.5469 29.382" stroke="#48ABDD" stroke-width="2.27863" stroke-linecap="round" stroke-linejoin="round"/>
<path d="M15.8662 37.982H26.1862C34.7862 37.982 38.2262 34.542 38.2262 25.942V15.622C38.2262 7.02203 34.7862 3.58203 26.1862 3.58203H15.8662C7.26617 3.58203 3.82617 7.02203 3.82617 15.622V25.942C3.82617 34.542 7.26617 37.982 15.8662 37.982Z" stroke="#48ABDD" stroke-width="2.27863" stroke-linecap="round" stroke-linejoin="round"/>
<path d="M4.22266 13.9215L37.2811 13.9043" stroke="#48ABDD" stroke-width="2.27863" stroke-linecap="round" stroke-linejoin="round"/>
</svg>
